{
  "accessors": [
    {
      "bufferView": 2,
      "componentType": 5126,
      "count": 59664,
      "max": [
        3.1984529495239258,
        0.064698003232479095,
        0.97277504205703735
      ],
      "min": [
        -3.0631918907165527,
        -1.5655109882354736,
        -1.0775970220565796
      ],
      "type": "VEC3"
    },
    {
      "bufferView": 2,
      "byteOffset": 715968,
      "componentType": 5126,
      "count": 59664,
      "max": [
        1,
        0.99997240304946899,
        1
      ],
      "min": [
        -1,
        -0.99999767541885376,
        -1
      ],
      "type": "VEC3"
    },
    {
      "bufferView": 3,
      "componentType": 5126,
      "count": 59664,
      "max": [
        1,
        0.99999934434890747,
        1,
        1
      ],
      "min": [
        -1,
        -1,
        -1,
        -1
      ],
      "type": "VEC4"
    },
    {
      "bufferView": 1,
      "componentType": 5126,
      "count": 59664,
      "max": [
        0.99652761220932007,
        0.99993813037872314
      ],
      "min": [
        6.6950196924153715e-05,
        6.1273502069525421e-05
      ],
      "type": "VEC2"
    },
    {
      "bufferView": 0,
      "componentType": 5125,
      "count": 59664,
      "max": [
        59663
      ],
      "min": [
        0
      ],
      "type": "SCALAR"
    }
  ],
  "asset": {
    "extras": {
      "author": "Scottish Maritime Museum (https://sketchfab.com/ScottishMaritimeMuseum)",
      "license": "CC0-1.0 (http://creativecommons.org/publicdomain/zero/1.0/)",
      "source": "https://sketchfab.com/3d-models/venus-a-shetland-fourareen-with-base-4c903a14567f47fcb9d1bbf3e38ca502",
      "title": "\"Venus\", a Shetland fourareen (with base)"
    },
    "generator": "Sketchfab-7.80.0",
    "version": "2.0"
  },
  "bufferViews": [
    {
      "buffer": 0,
      "byteLength": 238656,
      "byteOffset": 0,
      "name": "floatBufferViews",
      "target": 34963
    },
    {
      "buffer": 0,
      "byteLength": 477312,
      "byteOffset": 238656,
      "byteStride": 8,
      "name": "floatBufferViews",
      "target": 34962
    },
    {
      "buffer": 0,
      "byteLength": 1431936,
      "byteOffset": 715968,
      "byteStride": 12,
      "name": "floatBufferViews",
      "target": 34962
    },
    {
      "buffer": 0,
      "byteLength": 954624,
      "byteOffset": 2147904,
      "byteStride": 16,
      "name": "floatBufferViews",
      "target": 34962
    }
  ],
  "buffers": [
    {
      "byteLength": 3102528,
      "uri": "scene.bin"
    }
  ],
  "images": [
    {
      "uri": "textures/ShetlandBoat20K_2_Material_baseColor.png"
    },
    {
      "uri": "textures/ShetlandBoat20K_2_Material_normal.png"
    }
  ],
  "materials": [
    {
      "doubleSided": true,
      "name": "ShetlandBoat20K_2_Material",
      "normalTexture": {
        "index": 1,
        "scale": 1,
        "texCoord": 0
      },
      "pbrMetallicRoughness": {
        "baseColorFactor": [
          1,
          1,
          1,
          1
        ],
        "baseColorTexture": {
          "index": 0,
          "texCoord": 0
        },
        "metallicFactor": 0,
        "roughnessFactor": 0.59999999999999998
      }
    }
  ],
  "meshes": [
    {
      "primitives": [
        {
          "attributes": {
            "NORMAL": 1,
            "POSITION": 0,
            "TANGENT": 2,
            "TEXCOORD_0": 3
          },
          "indices": 4,
          "material": 0,
          "mode": 4
        }
      ]
    }
  ],
  "nodes": [
    {
      "children": [
        1
      ],
      "name": "RootNode (gltf orientation matrix)",
      "rotation": [
        -0.70710678118654746,
        -0,
        -0,
        0.70710678118654757
      ]
    },
    {
      "children": [
        2
      ],
      "matrix": [
        -1,
        0,
        0,
        0,
        0,
        -0.036611393094062805,
        -0.99932956695556641,
        0,
        0,
        -0.99932956695556641,
        0.036611393094062805,
        0,
        0.135284423828125,
        -0.83025896549224854,
        -0.80039864778518677,
        1
      ],
      "name": "RootNode (model correction matrix)"
    },
    {
      "children": [
        3
      ],
      "name": "ShetlandBoat20K.obj.cleaner.materialmerger.gles"
    },
    {
      "mesh": 0,
      "name": ""
    }
  ],
  "samplers": [
    {
      "magFilter": 9729,
      "minFilter": 9987,
      "wrapS": 10497,
      "wrapT": 10497
    }
  ],
  "scene": 0,
  "scenes": [
    {
      "name": "OSG_Scene",
      "nodes": [
        0
      ]
    }
  ],
  "textures": [
    {
      "sampler": 0,
      "source": 0
    },
    {
      "sampler": 0,
      "source": 1
    }
  ]
}

